<svg width="315" height="315" viewBox="0 0 315 315" fill="none" xmlns="http://www.w3.org/2000/svg">
<path d="M265.683 295.312H49.3172C41.4623 295.313 33.9289 292.194 28.3728 286.641C22.8167 281.089 19.6927 273.557 19.6875 265.703V187.012C19.6875 176.203 28.4484 167.344 39.375 167.344H275.625C280.845 167.344 285.851 169.417 289.543 173.107C293.235 176.797 295.31 181.802 295.312 187.021V265.703C295.281 273.549 292.149 281.066 286.599 286.612C281.048 292.159 273.53 295.287 265.683 295.312Z" fill="#608842"/>
<path d="M244.164 146.17H218.58C217.493 146.17 216.612 147.051 216.612 148.139V185.003C216.612 186.091 217.493 186.972 218.58 186.972H244.164C245.252 186.972 246.133 186.091 246.133 185.003V148.139C246.133 147.051 245.252 146.17 244.164 146.17Z" fill="#8C5543"/>
<path d="M260.515 47.6044C260.019 39.9923 256.603 32.8657 250.979 27.7119C245.355 22.5581 237.958 19.7753 230.332 19.9442C222.706 20.1131 215.439 23.2207 210.049 28.6184C204.659 34.0162 201.561 41.287 201.403 48.9136C201.236 50.0948 200.931 51.1973 199.828 51.7191C195.624 52.5821 191.657 54.3496 188.204 56.8988C184.751 59.448 181.893 62.718 179.83 66.4818C177.767 70.2457 176.548 74.4133 176.256 78.6956C175.965 82.9779 176.608 87.2724 178.142 91.2811C178.162 91.373 178.195 91.478 178.241 91.5961C178.504 92.3177 178.571 93.0963 178.434 93.8523C178.298 94.6082 177.963 95.3142 177.463 95.8978C172.956 99.8299 169.747 105.036 168.259 110.829C166.771 116.622 167.074 122.731 169.128 128.348C171.183 133.965 174.892 138.828 179.766 142.294C184.641 145.761 190.452 147.668 196.432 147.765H266.529C272.582 147.718 278.474 145.816 283.411 142.315C288.348 138.814 292.093 133.882 294.139 128.186C296.185 122.49 296.435 116.304 294.855 110.461C293.275 104.619 289.94 99.4016 285.301 95.5139C283.628 93.7716 284.041 91.4386 284.524 89.7356L284.76 88.9777L284.809 88.8398C284.906 88.6765 284.954 88.4884 284.947 88.2984C285.955 84.4833 286.19 80.5053 285.639 76.5979C285.088 72.6906 283.763 68.9326 281.74 65.5445C279.717 62.1564 277.038 59.2065 273.86 56.8679C270.682 54.5292 267.068 52.849 263.232 51.9258C261.509 51.3647 260.623 48.9628 260.515 47.6044Z" fill="#96C34A"/>
<path d="M76.8502 85.0894C84.0264 85.0894 89.8439 79.2719 89.8439 72.0956C89.8439 64.9194 84.0264 59.1019 76.8502 59.1019C69.6739 59.1019 63.8564 64.9194 63.8564 72.0956C63.8564 79.2719 69.6739 85.0894 76.8502 85.0894Z" fill="#D3D3D3"/>
<path d="M81.5161 63.4134C78.2776 68.5716 76.23 68.8275 72.4599 67.3805C70.4124 66.8686 68.5618 65.8645 63.8761 65.8645C52.9299 65.8645 43.4602 75.1177 43.4602 87.5995C43.4602 100.081 51.916 108.675 68.5618 108.675H108.281C124.602 108.675 136.238 95.071 136.238 77.7558C136.238 60.4406 120.291 49.4747 106.214 49.4747C92.1375 49.4747 84.7449 58.2652 81.5063 63.4134" fill="#E6E6E6"/>
<path d="M44.7989 240.65C39.5325 253.979 47.2795 256.144 53.1759 256.144H253.949C261.135 256.144 264.265 250.297 260.82 241.516C258.969 236.791 229.664 163.721 216.07 127.811H94.2046C89.3418 127.811 88.1901 131.158 86.2214 135.913C84.2526 140.667 50.0653 227.322 44.7989 240.65Z" fill="#F9C23C"/>
<path d="M128.333 236.122C117.804 210.201 107.343 184.253 96.951 158.278V256.154H147.863C136.818 256.154 133.954 249.746 128.333 236.122Z" fill="#433B6B"/>
<path d="M97.0593 158.287C94.3099 151.546 91.6061 144.787 88.9481 138.009C88.2295 136.041 87.2549 133.343 88.3279 131.316V131.276C87.6363 132.579 87.0184 133.92 86.4773 135.292L86.2214 135.913C84.666 139.663 63.059 194.385 51.4237 223.876L44.7989 240.65C39.5325 253.979 47.2795 256.144 53.1759 256.144H93.9192V168.653L97.0593 158.287Z" fill="#ED9200"/>
<path d="M97.1971 256.134V158.219C85.424 190.801 63.5414 249.687 62.6456 252.049C61.7498 254.412 60.48 255.76 59.9583 256.134H97.1971Z" fill="#FF6723"/>
<path d="M161.172 157.559C153.041 157.559 150.432 162.255 152.962 169.185C153.848 172.256 156.319 180.003 158.77 186.608C161.841 194.877 166.281 196.993 173.614 196.993H190.408C198.539 196.993 199.69 191.284 197.958 186.608C196.225 181.942 193.164 173.545 190.762 167.285C188.36 161.024 183.694 157.559 176.361 157.559H161.172Z" fill="#FF822D"/>
</svg>
