<svg width="129" height="129" viewBox="0 0 129 129" fill="none" xmlns="http://www.w3.org/2000/svg">
<path fill-rule="evenodd" clip-rule="evenodd" d="M0 30.2344C0 28.6306 0.63708 27.0926 1.77109 25.9586C2.9051 24.8246 4.44314 24.1875 6.04688 24.1875H122.953C124.557 24.1875 126.095 24.8246 127.229 25.9586C128.363 27.0926 129 28.6306 129 30.2344C129 31.8381 128.363 33.3762 127.229 34.5102C126.095 35.6442 124.557 36.2812 122.953 36.2812H6.04688C4.44314 36.2812 2.9051 35.6442 1.77109 34.5102C0.63708 33.3762 0 31.8381 0 30.2344ZM0 64.5C0 62.8963 0.63708 61.3582 1.77109 60.2242C2.9051 59.0902 4.44314 58.4531 6.04688 58.4531H122.953C124.557 58.4531 126.095 59.0902 127.229 60.2242C128.363 61.3582 129 62.8963 129 64.5C129 66.1037 128.363 67.6418 127.229 68.7758C126.095 69.9098 124.557 70.5469 122.953 70.5469H6.04688C4.44314 70.5469 2.9051 69.9098 1.77109 68.7758C0.63708 67.6418 0 66.1037 0 64.5ZM6.04688 92.7188C4.44314 92.7188 2.9051 93.3558 1.77109 94.4898C0.63708 95.6239 0 97.1619 0 98.7656C0 100.369 0.63708 101.907 1.77109 103.041C2.9051 104.175 4.44314 104.812 6.04688 104.812H122.953C124.557 104.812 126.095 104.175 127.229 103.041C128.363 101.907 129 100.369 129 98.7656C129 97.1619 128.363 95.6239 127.229 94.4898C126.095 93.3558 124.557 92.7188 122.953 92.7188H6.04688Z" fill="black"/>
</svg>
