<svg width="203" height="203" viewBox="0 0 203 203" fill="none" xmlns="http://www.w3.org/2000/svg">
<path d="M31.4465 173.554C21.8477 164.283 14.1914 153.193 8.92429 140.932C3.65718 128.67 0.884768 115.483 0.768809 102.138C0.652851 88.794 3.19567 75.5602 8.2489 63.2091C13.3021 50.858 20.7646 39.637 30.2008 30.2008C39.637 20.7646 50.858 13.3022 63.2091 8.24893C75.5602 3.1957 88.794 0.652881 102.138 0.76884C115.483 0.884798 128.67 3.65721 140.932 8.92432C153.193 14.1914 164.283 21.8477 173.553 31.4465C191.86 50.401 201.99 75.7876 201.761 102.138C201.532 128.489 190.963 153.696 172.329 172.329C153.696 190.963 128.489 201.532 102.138 201.761C75.7875 201.99 50.401 191.86 31.4465 173.554ZM159.383 159.383C174.469 144.297 182.945 123.835 182.945 102.5C182.945 81.1647 174.469 60.7033 159.383 45.617C144.297 30.5307 123.835 22.0553 102.5 22.0553C81.1647 22.0553 60.7033 30.5307 45.617 45.617C30.5307 60.7033 22.0553 81.1647 22.0553 102.5C22.0553 123.835 30.5307 144.297 45.617 159.383C60.7033 174.469 81.1647 182.945 102.5 182.945C123.835 182.945 144.297 174.469 159.383 159.383ZM72.35 62.3L152.75 102.5L72.35 142.7V62.3Z" fill="#14AE5C"/>
</svg>
