<svg width="212" height="212" viewBox="0 0 212 212" fill="none" xmlns="http://www.w3.org/2000/svg">
<path d="M123.888 30.6539L138.774 59.2076C139.881 61.3096 141.471 63.1192 143.412 64.4884C145.354 65.8576 147.592 66.7474 149.944 67.0848L181.386 71.391C198.2 73.7098 204.719 94.4394 192.284 105.967L170.753 125.835C168.92 127.524 167.544 129.648 166.753 132.011C165.962 134.374 165.781 136.899 166.228 139.35L171.482 168.487C174.403 184.718 157.516 197.372 142.696 189.952L112.645 175.046C110.576 174.032 108.303 173.506 106 173.506C103.697 173.506 101.424 174.032 99.3552 175.046L69.3042 189.952C54.4774 197.306 37.5969 184.718 40.5185 168.487L45.7722 139.344C46.6997 134.375 44.9772 129.274 41.2539 125.829L19.716 105.967C7.28091 94.5056 13.7999 73.7031 30.6142 71.3844L62.0564 67.0781C64.415 66.7618 66.6623 65.8804 68.607 64.5089C70.5517 63.1375 72.1364 61.3165 73.2262 59.201L88.1192 30.6539C95.6982 16.2776 116.368 16.2776 123.881 30.6539" fill="#FCD53F"/>
</svg>
