<svg width="995" height="342" viewBox="0 0 895 242" fill="none" xmlns="http://www.w3.org/2000/svg">
<path d="M87.672 13.016C88.184 11.224 88.952 9.77333 89.976 8.66399C91 7.46933 92.1093 6.87199 93.304 6.87199C96.2053 6.87199 98.296 7.42666 99.576 8.536C100.856 9.64533 101.496 11.5653 101.496 14.296C101.496 15.064 100.899 17.24 99.704 20.824C97.0587 28.9307 94.1573 38.9573 91 50.904C90.232 53.6347 89.592 56.024 89.08 58.072C88.6533 60.12 88.2693 61.8267 87.928 63.192C85.88 71.9813 84.088 78.5947 82.552 83.032C82.04 84.312 81.144 85.336 79.864 86.104C78.584 86.7867 77.2187 87.128 75.768 87.128C74.3173 87.128 72.8667 86.8293 71.416 86.232C70.0507 85.5493 69.0693 84.7813 68.472 83.928C65.8267 78.7227 62.5413 71.64 58.616 62.68C54.776 53.6347 51.7893 45.7413 49.656 39C44.3653 52.3973 39.6293 65.3253 35.448 77.784C35.192 78.552 34.8933 79.4053 34.552 80.344C34.296 81.1973 33.9973 82.0933 33.656 83.032C33.0587 84.312 32.2053 85.336 31.096 86.104C29.9867 86.7867 28.7493 87.128 27.384 87.128C25.848 87.128 24.3547 86.8293 22.904 86.232C21.4533 85.5493 20.472 84.7813 19.96 83.928C18.8507 82.0507 17.656 79.1493 16.376 75.224C15.1813 71.2987 13.56 65.7947 11.512 58.712L8.312 47.832C6.09333 40.7493 4.17333 33.496 2.552 26.072C0.930667 18.648 0.12 14.2107 0.12 12.76C0.12 10.968 1.016 9.56 2.808 8.536C4.6 7.42666 6.392 6.87199 8.184 6.87199C9.208 6.87199 10.2747 7.21333 11.384 7.896C12.4933 8.49333 13.2187 9.56 13.56 11.096C16.5467 27.0533 20.9413 45.5707 26.744 66.648C28.9627 61.3573 31.3947 54.9147 34.04 47.32C36.7707 39.7253 39.3733 32.344 41.848 25.176L43.128 21.336C43.4693 20.056 44.3227 19.0747 45.688 18.392C47.1387 17.624 48.5893 17.24 50.04 17.24C51.9173 17.24 53.4533 17.7093 54.648 18.648C55.8427 19.5867 56.6107 20.6107 56.952 21.72C57.0373 22.0613 58.744 27.1387 62.072 36.952C65.4 46.7653 69.368 56.664 73.976 66.648C75.6827 61.6133 77.7307 53.5493 80.12 42.456L82.04 34.008C84.344 24.9627 86.2213 17.9653 87.672 13.016ZM572.666 5.592C578.383 5.592 583.589 6.31733 588.282 7.768C592.975 9.13333 596.815 11.1813 599.802 13.912C605.178 18.776 608.933 24.1093 611.066 29.912C613.285 35.6293 614.394 42.968 614.394 51.928C614.394 53.8053 614.138 55.512 613.626 57.048C613.199 58.584 612.474 60.5467 611.45 62.936C610.17 65.5813 609.402 67.672 609.146 69.208C607.439 72.1947 604.623 75.0533 600.698 77.784C596.858 80.5147 592.677 82.7333 588.154 84.44C583.631 86.1467 579.663 87 576.25 87C559.781 87 548.047 81.368 541.05 70.104C539.087 66.9467 537.551 63.6613 536.442 60.248C535.418 56.8347 534.906 53.5067 534.906 50.264C534.906 41.56 536.442 34.008 539.514 27.608C542.671 21.1227 547.023 16.088 552.57 12.504C555.898 10.5413 559.354 8.92 562.938 7.64C566.607 6.27466 569.85 5.592 572.666 5.592ZM548.218 50.648C548.218 55.256 549.242 59.0533 551.29 62.04C553.423 65.0267 556.666 68.2693 561.018 71.768C564.602 73.1333 567.034 74.0293 568.314 74.456C569.594 74.7973 571.045 74.968 572.666 74.968C581.285 74.968 588.154 72.6213 593.274 67.928C598.394 63.2347 600.954 56.792 600.954 48.6C600.954 42.1147 600.229 36.9947 598.778 33.24C597.327 29.4853 594.725 26.1147 590.97 23.128C589.007 21.5067 586.49 20.312 583.418 19.544C580.431 18.776 577.189 18.392 573.69 18.392C568.399 18.392 563.834 19.9707 559.994 23.128C556.154 26.2 553.21 30.2107 551.162 35.16C549.199 40.1093 548.218 45.272 548.218 50.648ZM699.658 12.376C699.658 8.70666 702.346 6.87199 707.722 6.87199C710.026 6.87199 714.421 6.95733 720.906 7.128C728.074 7.46933 733.493 7.64 737.162 7.64C740.149 7.64 743.775 7.46933 748.042 7.128C750.943 6.95733 752.778 6.87199 753.546 6.87199C758.239 7.04266 762.207 7.896 765.45 9.432C766.389 9.85867 767.157 10.3707 767.754 10.968C768.351 11.5653 768.65 12.5467 768.65 13.912C768.65 15.7893 768.053 17.4107 766.858 18.776C765.663 20.056 764.213 20.696 762.506 20.696C760.629 20.696 757.898 20.44 754.314 19.928C751.157 19.3307 748.383 19.032 745.994 19.032C743.69 19.032 741.941 19.0747 740.746 19.16C740.49 21.976 740.362 28.7173 740.362 39.384C740.362 52.0987 740.746 64.984 741.514 78.04L741.77 81.752C741.77 85.2507 739.765 87 735.754 87C732.597 87 730.463 86.2747 729.354 84.824C728.245 83.288 727.69 80.984 727.69 77.912C727.69 71.8533 727.519 64.3013 727.178 55.256C726.837 47.7467 726.666 42.4133 726.666 39.256C726.666 37.1227 726.922 30.5947 727.434 19.672L712.458 19.8C707.679 19.8 704.351 19.3733 702.474 18.52C700.597 17.5813 699.658 15.5333 699.658 12.376ZM87.672 167.016C88.184 165.224 88.952 163.773 89.976 162.664C91 161.469 92.1093 160.872 93.304 160.872C96.2053 160.872 98.296 161.427 99.576 162.536C100.856 163.645 101.496 165.565 101.496 168.296C101.496 169.064 100.899 171.24 99.704 174.824C97.0587 182.931 94.1573 192.957 91 204.904C90.232 207.635 89.592 210.024 89.08 212.072C88.6533 214.12 88.2693 215.827 87.928 217.192C85.88 225.981 84.088 232.595 82.552 237.032C82.04 238.312 81.144 239.336 79.864 240.104C78.584 240.787 77.2187 241.128 75.768 241.128C74.3173 241.128 72.8667 240.829 71.416 240.232C70.0507 239.549 69.0693 238.781 68.472 237.928C65.912 232.893 62.6693 225 58.744 214.248C54.8187 203.411 51.7893 193.171 49.656 183.528C47.6933 192.744 45.56 201.021 43.256 208.36C41.0373 215.699 38.4773 223.421 35.576 231.528C35.2347 232.552 34.8933 233.533 34.552 234.472C34.2107 235.325 33.912 236.179 33.656 237.032C33.0587 238.312 32.2053 239.336 31.096 240.104C29.9867 240.787 28.7493 241.128 27.384 241.128C25.848 241.128 24.3547 240.829 22.904 240.232C21.4533 239.549 20.472 238.781 19.96 237.928C18.8507 236.051 17.656 233.149 16.376 229.224C15.1813 225.299 13.56 219.795 11.512 212.712L8.312 201.832C6.09333 194.749 4.17333 187.496 2.552 180.072C0.930667 172.648 0.12 168.211 0.12 166.76C0.12 164.968 1.016 163.56 2.808 162.536C4.6 161.427 6.392 160.872 8.184 160.872C9.208 160.872 10.2747 161.213 11.384 161.896C12.4933 162.493 13.2187 163.56 13.56 165.096C16.5467 181.053 20.9413 199.571 26.744 220.648C28.1947 217.32 29.56 213.395 30.84 208.872C32.2053 204.264 34.04 197.821 36.344 189.544C39.3307 178.707 41.592 170.984 43.128 166.376C43.4693 165.096 44.3227 164.072 45.688 163.304C47.1387 162.536 48.5893 162.152 50.04 162.152C51.9173 162.152 53.4533 162.664 54.648 163.688C55.8427 164.627 56.6107 165.651 56.952 166.76L57.976 170.728C60.6213 180.712 63.2667 190.056 65.912 198.76C68.5573 207.464 71.2453 214.76 73.976 220.648C75.6827 215.613 77.7307 207.549 80.12 196.456L82.04 188.008C84.344 178.963 86.2213 171.965 87.672 167.016Z" fill="black"/>
<path d="M126.772 5.848C126.772 8.06666 126.729 10.6693 126.644 13.656C126.559 16.5573 126.473 18.776 126.388 20.312C126.132 24.664 126.004 29.016 126.004 33.368C126.004 36.6107 126.132 39.9813 126.388 43.48C129.033 39.64 131.892 36.824 134.964 35.032C138.036 33.24 141.748 32.344 146.1 32.344C149.257 32.344 152.201 33.752 154.932 36.568C157.663 39.384 159.412 42.6693 160.18 46.424C160.436 49.752 160.564 53.8053 160.564 58.584C160.564 61.656 160.735 65.6667 161.076 70.616C161.247 72.4933 161.716 74.2427 162.484 75.864C163.337 77.4853 164.532 78.296 166.068 78.296C166.836 78.296 167.433 78.2533 167.86 78.168C168.372 78.0827 168.841 78.04 169.268 78.04C170.463 78.04 171.273 78.3387 171.7 78.936C172.212 79.5333 172.468 80.3867 172.468 81.496C172.468 83.544 171.444 85.08 169.396 86.104C167.348 87.128 165.471 87.64 163.764 87.64C157.62 87.64 153.396 85.08 151.092 79.96C149.812 77.0587 149.001 73.304 148.66 68.696C148.319 64.0027 148.148 58.5413 148.148 52.312C148.148 46.168 146.057 43.096 141.876 43.096C139.572 43.096 137.225 44.3333 134.836 46.808C132.532 49.1973 130.612 52.3973 129.076 56.408C127.54 60.3333 126.772 64.4293 126.772 68.696L126.9 82.008C126.9 83.8853 126.175 85.2933 124.724 86.232C123.273 87.0853 121.908 87.512 120.628 87.512C118.751 87.512 117.044 86.9573 115.508 85.848C113.972 84.6533 113.204 83.3307 113.204 81.88C113.801 75.48 114.1 64.7707 114.1 49.752C114.1 47.0213 113.887 36.9093 113.46 19.416L113.076 7.64C113.076 5.76266 113.929 4.14133 115.636 2.77599C117.343 1.32533 119.263 0.599998 121.396 0.599998C123.273 0.599998 124.639 1.02666 125.492 1.88C126.345 2.73333 126.772 4.056 126.772 5.848ZM186.687 4.824C189.674 5.07999 192.276 5.89066 194.495 7.256C196.714 8.536 197.823 10.4987 197.823 13.144C197.823 15.1067 196.884 16.6853 195.007 17.88C193.215 18.9893 191.039 19.544 188.479 19.544C186.004 19.544 184.298 18.904 183.359 17.624C182.42 16.344 181.951 15.0213 181.951 13.656C181.951 11.096 182.207 8.96266 182.719 7.256C183.316 5.54933 184.639 4.73867 186.687 4.824ZM196.927 61.528V65.24C196.927 68.568 197.012 71.7253 197.183 74.712C197.439 77.6133 197.738 80.5573 198.079 83.544C197.994 84.3973 197.354 85.2933 196.159 86.232C194.964 87.0853 193.898 87.512 192.959 87.512C191.338 87.512 189.674 87.2133 187.967 86.616C186.346 85.9333 185.364 85.1227 185.023 84.184C184.511 81.4533 184.255 79.0213 184.255 76.888C184.255 69.8907 184.042 62.04 183.615 53.336C183.274 45.656 183.103 40.28 183.103 37.208C183.103 35.672 183.871 34.3493 185.407 33.24C186.943 32.1307 188.564 31.576 190.271 31.576C192.746 31.576 194.452 32.1307 195.391 33.24C196.415 34.3493 196.927 36.0987 196.927 38.488V61.528ZM248.749 59.352C249.432 59.7787 250.754 60.5893 252.717 61.784C254.765 62.8933 256.13 64.216 256.813 65.752C257.496 67.288 257.837 69.4213 257.837 72.152C257.837 75.224 256.941 77.9547 255.149 80.344C253.357 82.648 251.053 84.44 248.237 85.72C246.274 86.5733 244.141 87.0853 241.837 87.256C239.618 87.4267 236.93 87.512 233.773 87.512C232.066 87.512 229.848 87.256 227.117 86.744C224.472 86.232 222.637 85.7627 221.613 85.336C218.882 83.8 216.578 82.008 214.701 79.96C212.824 77.912 211.885 75.8213 211.885 73.688C211.885 71.9813 212.44 70.616 213.549 69.592C214.658 68.568 216.109 68.056 217.901 68.056C218.84 68.056 219.736 68.312 220.589 68.824C221.528 69.2507 222.168 69.7627 222.509 70.36C223.448 72.5787 225.026 74.2427 227.245 75.352C229.464 76.4613 231.725 77.016 234.029 77.016C242.136 77.016 246.189 75.5653 246.189 72.664C246.189 71.896 245.976 71.2987 245.549 70.872C245.208 70.36 244.696 69.848 244.013 69.336C242.904 68.568 241.325 67.7573 239.277 66.904C237.314 66.0507 235.565 65.4107 234.029 64.984C230.53 64.216 227.117 63.064 223.789 61.528C220.717 59.992 218.2 57.9867 216.237 55.512C214.274 52.952 213.293 49.8373 213.293 46.168C213.293 43.9493 214.104 41.7733 215.725 39.64C217.432 37.4213 219.394 35.7573 221.613 34.648C223.149 34.0507 225.666 33.4107 229.165 32.728C232.664 32.0453 235.053 31.704 236.333 31.704C238.296 31.704 240.429 31.9173 242.733 32.344C245.037 32.6853 246.786 33.2827 247.981 34.136C250.285 35.5013 252.162 36.952 253.613 38.488C255.064 39.9387 255.789 41.6027 255.789 43.48C255.789 44.4187 255.576 45.4427 255.149 46.552C254.722 47.576 254.21 48.216 253.613 48.472C252.333 49.0693 250.84 49.368 249.133 49.368C248.365 49.368 247.725 49.1547 247.213 48.728C246.786 48.3013 246.189 47.6187 245.421 46.68C244.482 45.2293 243.586 44.376 242.733 44.12C241.709 43.864 240.216 43.5653 238.253 43.224C236.29 42.7973 234.968 42.584 234.285 42.584C232.152 42.584 230.104 43.0107 228.141 43.864C226.264 44.7173 225.325 45.8693 225.325 47.32C225.325 49.0267 226.733 50.4773 229.549 51.672C231.341 52.5253 233.304 53.2507 235.437 53.848C237.656 54.4453 239.021 54.8293 239.533 55C240.728 55.256 242.264 55.8533 244.141 56.792C246.104 57.7307 247.64 58.584 248.749 59.352ZM272.853 42.456C272.085 42.456 271.36 42.5413 270.677 42.712C269.994 42.7973 269.312 42.84 268.629 42.84C267.69 42.84 266.794 42.4133 265.941 41.56C265.173 40.7067 264.789 39.9387 264.789 39.256C264.789 37.0373 265.898 35.3307 268.117 34.136C270.336 32.856 272.597 32.216 274.901 32.216C276.864 32.216 278.869 32.8987 280.917 34.264C283.05 35.544 284.629 37.208 285.653 39.256C287.872 36.6107 290.602 34.6907 293.845 33.496C297.088 32.3013 300.458 31.704 303.957 31.704C307.882 31.704 311.509 32.9413 314.837 35.416C318.25 37.8907 320.938 41.048 322.901 44.888C324.864 48.6427 325.845 52.3973 325.845 56.152C325.845 59.8213 325.461 63.1067 324.693 66.008C323.925 68.824 322.56 71.6827 320.597 74.584C318.378 77.656 315.392 80.1733 311.637 82.136C307.968 84.0987 303.573 85.08 298.453 85.08C297.088 85.08 295.424 84.7387 293.461 84.056C291.498 83.288 289.877 82.4773 288.597 81.624C288 87.4267 287.701 92.4613 287.701 96.728C287.701 99.288 287.829 101.72 288.085 104.024C288.256 106.755 288.341 108.717 288.341 109.912C288.341 111.789 287.701 113.155 286.421 114.008C285.141 114.947 283.733 115.416 282.197 115.416C279.125 115.416 277.077 114.563 276.053 112.856C275.114 111.235 274.645 108.888 274.645 105.816C274.986 98.4773 275.413 91.6933 275.925 85.464C276.437 77.784 276.693 65.9227 276.693 49.88C276.693 48.344 276.394 46.7227 275.797 45.016C275.2 43.3093 274.218 42.456 272.853 42.456ZM289.109 68.952C289.536 70.5733 290.73 71.9387 292.693 73.048C294.741 74.072 296.576 74.584 298.197 74.584C303.061 74.584 306.688 73.2613 309.077 70.616C310.869 68.7387 312.021 66.904 312.533 65.112C313.13 63.32 313.429 60.4613 313.429 56.536C313.429 53.464 312.832 50.904 311.637 48.856C310.442 46.7227 308.992 45.1867 307.285 44.248C305.578 43.224 303.957 42.712 302.421 42.712C298.922 42.712 296.064 43.7787 293.845 45.912C291.712 47.96 290.346 50.776 289.749 54.36C289.322 57.176 289.109 62.04 289.109 68.952ZM336.379 57.688C336.379 52.4827 337.531 48.1733 339.835 44.76C342.139 41.2613 345.339 37.976 349.435 34.904C350.63 34.0507 352.635 33.3253 355.451 32.728C358.267 32.0453 360.742 31.704 362.875 31.704C365.435 31.704 368.123 32.2587 370.939 33.368C373.84 34.392 376.187 35.5867 377.979 36.952C381.136 39.256 383.312 41.944 384.507 45.016C385.702 48.0027 386.299 51.5867 386.299 55.768C386.299 57.56 385.275 59.3093 383.227 61.016C381.264 62.6373 379.131 63.448 376.827 63.448L371.963 63.32C369.488 63.32 365.947 63.4053 361.339 63.576L358.651 63.704C356.774 63.8747 355.366 63.96 354.427 63.96C353.062 63.96 351.184 63.7893 348.795 63.448C349.136 67.4587 350.63 70.616 353.275 72.92C355.92 75.1387 358.779 76.248 361.851 76.248C367.227 76.248 370.982 75.1813 373.115 73.048C374.907 71.768 376.102 70.9573 376.699 70.616C377.296 70.2747 378.235 70.104 379.515 70.104C380.88 70.104 382.075 70.744 383.099 72.024C384.123 73.304 384.635 74.584 384.635 75.864C384.635 77.3147 383.739 78.808 381.947 80.344C380.24 81.7947 377.894 83.3307 374.907 84.952C373.286 85.6347 371.067 86.232 368.251 86.744C365.435 87.256 363.088 87.512 361.211 87.512C358.224 87.512 354.896 86.6587 351.227 84.952C347.558 83.16 344.827 81.1973 343.035 79.064C341.243 76.9307 339.664 73.9013 338.299 69.976C337.019 66.0507 336.379 61.9547 336.379 57.688ZM361.851 54.232C367.91 54.232 372.347 54.0187 375.163 53.592C374.992 51.1173 374.224 49.112 372.859 47.576C371.494 45.9547 369.616 44.5893 367.227 43.48C366.459 43.1387 365.776 42.8827 365.179 42.712C364.582 42.5413 363.899 42.456 363.131 42.456C359.206 42.456 355.878 43.5227 353.147 45.656C350.502 47.7893 348.923 50.52 348.411 53.848C352.678 54.104 357.158 54.232 361.851 54.232ZM417.353 81.88C417.353 83.3307 416.798 84.6107 415.689 85.72C414.58 86.8293 413.214 87.384 411.593 87.384C409.033 87.384 407.156 86.9147 405.961 85.976C404.766 84.952 404.169 83.1173 404.169 80.472C404.169 77.3147 404.084 73.176 403.913 68.056C403.742 63.7893 403.657 60.2053 403.657 57.304C403.657 55.9387 403.742 54.1467 403.913 51.928C404.084 49.88 404.169 48.344 404.169 47.32C403.913 45.6987 403.273 44.376 402.249 43.352C401.225 42.2427 399.902 41.688 398.281 41.688C397.513 41.688 396.873 41.3467 396.361 40.664C395.849 39.896 395.593 39.128 395.593 38.36C395.593 36.3973 396.361 34.904 397.897 33.88C399.518 32.856 401.438 32.344 403.657 32.344C408.265 32.344 411.465 35.0747 413.257 40.536C415.476 37.976 417.993 35.928 420.809 34.392C423.71 32.7707 426.484 31.96 429.129 31.96C432.286 31.96 435.145 32.8133 437.705 34.52C440.35 36.2267 441.673 38.5307 441.673 41.432C441.673 43.0533 440.948 44.7173 439.497 46.424C438.132 48.1307 436.724 48.984 435.273 48.984C434.505 48.984 433.822 48.8133 433.225 48.472C432.713 48.0453 432.073 47.448 431.305 46.68C430.452 45.8267 429.726 45.2293 429.129 44.888C428.532 44.4613 427.849 44.248 427.081 44.248C425.716 44.248 424.436 44.4613 423.241 44.888C422.046 45.3147 421.236 45.8267 420.809 46.424C419.444 48.5573 418.42 50.4773 417.737 52.184C417.14 53.8907 416.841 55.7253 416.841 57.688C416.841 59.1387 416.798 60.2907 416.713 61.144L416.585 68.44C416.585 69.5493 416.628 70.7867 416.713 72.152C416.798 73.5173 416.884 74.5413 416.969 75.224C417.225 77.528 417.353 79.7467 417.353 81.88ZM485.124 59.352C485.807 59.7787 487.129 60.5893 489.092 61.784C491.14 62.8933 492.505 64.216 493.188 65.752C493.871 67.288 494.212 69.4213 494.212 72.152C494.212 75.224 493.316 77.9547 491.524 80.344C489.732 82.648 487.428 84.44 484.612 85.72C482.649 86.5733 480.516 87.0853 478.212 87.256C475.993 87.4267 473.305 87.512 470.148 87.512C468.441 87.512 466.223 87.256 463.492 86.744C460.847 86.232 459.012 85.7627 457.988 85.336C455.257 83.8 452.953 82.008 451.076 79.96C449.199 77.912 448.26 75.8213 448.26 73.688C448.26 71.9813 448.815 70.616 449.924 69.592C451.033 68.568 452.484 68.056 454.276 68.056C455.215 68.056 456.111 68.312 456.964 68.824C457.903 69.2507 458.543 69.7627 458.884 70.36C459.823 72.5787 461.401 74.2427 463.62 75.352C465.839 76.4613 468.1 77.016 470.404 77.016C478.511 77.016 482.564 75.5653 482.564 72.664C482.564 71.896 482.351 71.2987 481.924 70.872C481.583 70.36 481.071 69.848 480.388 69.336C479.279 68.568 477.7 67.7573 475.652 66.904C473.689 66.0507 471.94 65.4107 470.404 64.984C466.905 64.216 463.492 63.064 460.164 61.528C457.092 59.992 454.575 57.9867 452.612 55.512C450.649 52.952 449.668 49.8373 449.668 46.168C449.668 43.9493 450.479 41.7733 452.1 39.64C453.807 37.4213 455.769 35.7573 457.988 34.648C459.524 34.0507 462.041 33.4107 465.54 32.728C469.039 32.0453 471.428 31.704 472.708 31.704C474.671 31.704 476.804 31.9173 479.108 32.344C481.412 32.6853 483.161 33.2827 484.356 34.136C486.66 35.5013 488.537 36.952 489.988 38.488C491.439 39.9387 492.164 41.6027 492.164 43.48C492.164 44.4187 491.951 45.4427 491.524 46.552C491.097 47.576 490.585 48.216 489.988 48.472C488.708 49.0693 487.215 49.368 485.508 49.368C484.74 49.368 484.1 49.1547 483.588 48.728C483.161 48.3013 482.564 47.6187 481.796 46.68C480.857 45.2293 479.961 44.376 479.108 44.12C478.084 43.864 476.591 43.5653 474.628 43.224C472.665 42.7973 471.343 42.584 470.66 42.584C468.527 42.584 466.479 43.0107 464.516 43.864C462.639 44.7173 461.7 45.8693 461.7 47.32C461.7 49.0267 463.108 50.4773 465.924 51.672C467.716 52.5253 469.679 53.2507 471.812 53.848C474.031 54.4453 475.396 54.8293 475.908 55C477.103 55.256 478.639 55.8533 480.516 56.792C482.479 57.7307 484.015 58.584 485.124 59.352ZM662.984 15.96C662.131 15.96 661.405 15.7893 660.808 15.448C660.296 15.0213 659.656 14.3813 658.888 13.528C658.12 12.6747 657.352 12.0347 656.584 11.608C655.901 11.096 655.005 10.84 653.896 10.84C653.043 10.84 652.147 11.48 651.208 12.76C650.269 13.9547 649.629 15.8747 649.288 18.52C648.691 24.0667 648.392 28.5467 648.392 31.96C650.355 32.216 653.341 32.344 657.352 32.344H661.832C663.368 32.344 664.563 32.6427 665.416 33.24C666.269 33.8373 666.696 34.8187 666.696 36.184C666.696 38.1467 666.099 39.768 664.904 41.048C663.709 42.328 662.301 42.968 660.68 42.968C655.304 42.968 651.165 42.84 648.264 42.584C648.008 47.2773 647.88 52.3547 647.88 57.816C647.88 65.496 648.136 73.176 648.648 80.856C648.733 83.16 648.264 84.8667 647.24 85.976C646.216 87 644.552 87.512 642.248 87.512C640.883 87.512 639.859 87.2133 639.176 86.616C638.493 86.0187 637.981 85.3787 637.64 84.696C637.384 83.928 637.043 82.6053 636.616 80.728C635.933 77.2293 635.592 70.6587 635.592 61.016V50.392C635.592 48.0027 635.72 45.2293 635.976 42.072C635.293 42.072 634.013 42.072 632.136 42.072C630.344 41.9867 628.723 41.7733 627.272 41.432C626.504 41.176 625.736 40.536 624.968 39.512C624.2 38.488 623.816 37.2507 623.816 35.8C623.816 34.9467 624.115 34.136 624.712 33.368C625.309 32.6 626.035 32.0453 626.888 31.704C627.4 31.448 627.997 31.32 628.68 31.32C629.277 31.32 629.875 31.4053 630.472 31.576C631.155 31.6613 631.795 31.704 632.392 31.704L636.232 31.832C636.232 20.2267 637.555 12.0773 640.2 7.384C642.76 2.94666 646.984 0.727997 652.872 0.727997C654.749 0.727997 656.968 1.112 659.528 1.88C662.173 2.56267 664.435 3.62933 666.312 5.07999C668.275 6.44533 669.256 8.10933 669.256 10.072C669.256 11.5227 668.616 12.888 667.336 14.168C666.141 15.3627 664.691 15.96 662.984 15.96ZM792.272 5.848C792.272 8.06666 792.229 10.6693 792.144 13.656C792.059 16.5573 791.973 18.776 791.888 20.312C791.632 24.664 791.504 29.016 791.504 33.368C791.504 36.6107 791.632 39.9813 791.888 43.48C794.533 39.64 797.392 36.824 800.464 35.032C803.536 33.24 807.248 32.344 811.6 32.344C814.757 32.344 817.701 33.752 820.432 36.568C823.163 39.384 824.912 42.6693 825.68 46.424C825.936 49.752 826.064 53.8053 826.064 58.584C826.064 61.656 826.235 65.6667 826.576 70.616C826.747 72.4933 827.216 74.2427 827.984 75.864C828.837 77.4853 830.032 78.296 831.568 78.296C832.336 78.296 832.933 78.2533 833.36 78.168C833.872 78.0827 834.341 78.04 834.768 78.04C835.963 78.04 836.773 78.3387 837.2 78.936C837.712 79.5333 837.968 80.3867 837.968 81.496C837.968 83.544 836.944 85.08 834.896 86.104C832.848 87.128 830.971 87.64 829.264 87.64C823.12 87.64 818.896 85.08 816.592 79.96C815.312 77.0587 814.501 73.304 814.16 68.696C813.819 64.0027 813.648 58.5413 813.648 52.312C813.648 46.168 811.557 43.096 807.376 43.096C805.072 43.096 802.725 44.3333 800.336 46.808C798.032 49.1973 796.112 52.3973 794.576 56.408C793.04 60.3333 792.272 64.4293 792.272 68.696L792.4 82.008C792.4 83.8853 791.675 85.2933 790.224 86.232C788.773 87.0853 787.408 87.512 786.128 87.512C784.251 87.512 782.544 86.9573 781.008 85.848C779.472 84.6533 778.704 83.3307 778.704 81.88C779.301 75.48 779.6 64.7707 779.6 49.752C779.6 47.0213 779.387 36.9093 778.96 19.416L778.576 7.64C778.576 5.76266 779.429 4.14133 781.136 2.77599C782.843 1.32533 784.763 0.599998 786.896 0.599998C788.773 0.599998 790.139 1.02666 790.992 1.88C791.845 2.73333 792.272 4.056 792.272 5.848ZM844.635 59.864C844.635 56.6213 845.232 53.3787 846.427 50.136C847.622 46.808 849.2 43.7787 851.163 41.048C853.126 38.3173 856.24 36.0987 860.507 34.392C864.774 32.6 868.571 31.704 871.899 31.704C875.312 31.704 878.768 32.1733 882.267 33.112C885.851 34.0507 888.326 35.5013 889.691 37.464C892.848 41.9013 894.427 46.2533 894.427 50.52C894.427 52.824 893.915 54.7867 892.891 56.408C891.952 58.0293 890.587 59.7787 888.795 61.656C887.344 63.192 885.04 64.216 881.883 64.728C878.811 65.24 875.739 65.496 872.667 65.496C870.704 65.496 868.315 65.3253 865.499 64.984C862.683 64.5573 859.952 64.0453 857.307 63.448C857.478 65.1547 857.904 66.8187 858.587 68.44C859.27 70.0613 860.08 71.2987 861.019 72.152C862.726 73.7733 864.475 74.7973 866.267 75.224C868.144 75.6507 870.534 75.864 873.435 75.864C876.507 75.864 879.366 75.352 882.011 74.328C884.144 73.56 885.894 73.176 887.259 73.176C888.88 73.176 890.118 73.688 890.971 74.712C891.824 75.6507 892.251 76.888 892.251 78.424C892.251 80.5573 891.014 82.3067 888.539 83.672C886.064 85.0373 883.206 86.0613 879.963 86.744C876.806 87.3413 874.246 87.64 872.283 87.64C868.272 87.64 864.39 86.9147 860.635 85.464C856.88 84.0133 853.766 81.9653 851.291 79.32C849.243 76.9307 847.622 74.072 846.427 70.744C845.232 67.3307 844.635 63.704 844.635 59.864ZM872.539 42.584C870.662 42.584 868.784 42.968 866.907 43.736C865.03 44.4187 863.494 45.4 862.299 46.68C860.763 48.3013 859.696 49.624 859.099 50.648C858.587 51.5867 858.246 52.9093 858.075 54.616C860.208 55.2987 864.646 55.64 871.387 55.64C875.056 55.64 877.872 55.0853 879.835 53.976C881.883 52.8667 882.907 51.416 882.907 49.624C882.907 47.832 881.798 46.2107 879.579 44.76C877.36 43.3093 875.014 42.584 872.539 42.584ZM117.812 158.824C120.799 159.08 123.401 159.891 125.62 161.256C127.839 162.536 128.948 164.499 128.948 167.144C128.948 169.107 128.009 170.685 126.132 171.88C124.34 172.989 122.164 173.544 119.604 173.544C117.129 173.544 115.423 172.904 114.484 171.624C113.545 170.344 113.076 169.021 113.076 167.656C113.076 165.096 113.332 162.963 113.844 161.256C114.441 159.549 115.764 158.739 117.812 158.824ZM128.052 215.528V219.24C128.052 222.568 128.137 225.725 128.308 228.712C128.564 231.613 128.863 234.557 129.204 237.544C129.204 238.568 128.607 239.507 127.412 240.36C126.217 241.128 125.108 241.512 124.084 241.512C122.463 241.512 120.799 241.213 119.092 240.616C117.471 239.933 116.489 239.123 116.148 238.184C115.636 235.453 115.38 233.021 115.38 230.888C115.38 223.891 115.167 216.04 114.74 207.336C114.399 199.656 114.228 194.28 114.228 191.208C114.228 189.672 114.996 188.349 116.532 187.24C118.068 186.131 119.689 185.576 121.396 185.576C123.871 185.576 125.577 186.131 126.516 187.24C127.54 188.349 128.052 190.099 128.052 192.488V215.528ZM158.37 221.16C158.37 224.403 158.839 226.92 159.778 228.712C160.802 230.419 162.082 231.272 163.618 231.272C164.471 231.272 165.282 231.229 166.05 231.144C166.818 230.973 167.586 230.888 168.354 230.888C169.207 230.888 169.933 231.315 170.53 232.168C171.213 233.021 171.554 233.96 171.554 234.984C171.554 237.032 170.573 238.653 168.61 239.848C166.733 240.957 164.173 241.512 160.93 241.512C158.626 241.512 156.279 240.829 153.89 239.464C151.586 238.013 149.666 235.795 148.13 232.808C146.594 229.736 145.826 225.939 145.826 221.416C145.826 211.688 145.997 203.453 146.338 196.712C146.765 188.691 146.978 178.579 146.978 166.376C146.978 162.536 147.191 159.848 147.618 158.312C148.13 157.117 148.941 156.221 150.05 155.624C151.245 154.941 152.482 154.6 153.762 154.6C155.042 154.6 156.151 154.813 157.09 155.24C158.114 155.667 158.797 156.349 159.138 157.288C159.479 158.312 159.693 159.336 159.778 160.36C159.949 161.299 160.034 162.664 160.034 164.456C160.034 167.955 159.906 171.325 159.65 174.568C159.479 178.493 159.394 181.352 159.394 183.144C158.711 198.163 158.37 210.835 158.37 221.16ZM231.356 160.872C231.356 161.725 231.228 162.792 230.972 164.072C230.887 164.584 230.801 165.139 230.716 165.736C230.631 166.333 230.545 167.059 230.46 167.912C229.692 175.592 229.308 185.107 229.308 196.456C229.308 207.208 229.777 215.187 230.716 220.392C231.655 225.597 233.105 228.712 235.068 229.736L237.5 230.76C238.78 231.187 239.719 231.656 240.316 232.168C240.999 232.68 241.34 233.533 241.34 234.728C241.34 236.435 240.444 237.928 238.652 239.208C236.86 240.403 234.897 241 232.764 241C230.545 241 228.369 240.104 226.236 238.312C224.103 236.435 222.353 234.088 220.988 231.272C219.537 234.344 216.977 236.819 213.308 238.696C209.639 240.488 206.14 241.384 202.812 241.384C199.825 241.384 197.223 241 195.004 240.232C192.785 239.379 190.481 238.099 188.092 236.392C185.191 234.344 182.972 231.741 181.436 228.584C179.985 225.427 179.26 221.971 179.26 218.216C179.26 214.461 179.985 210.493 181.436 206.312C182.887 202.045 184.551 198.547 186.428 195.816C188.647 192.659 191.591 190.312 195.26 188.776C198.929 187.155 202.727 186.344 206.652 186.344C208.871 186.344 210.791 186.771 212.412 187.624C214.033 188.392 215.697 189.501 217.404 190.952C217.404 186.685 217.319 183.101 217.148 180.2C217.063 179.432 217.02 178.536 217.02 177.512C217.02 170.173 217.617 164.371 218.812 160.104C219.751 156.52 222.012 154.728 225.596 154.728C227.559 154.728 229.009 155.155 229.948 156.008C230.887 156.861 231.356 158.483 231.356 160.872ZM191.676 217.96C191.676 222.312 193.084 225.64 195.9 227.944C197.18 229.139 198.247 229.949 199.1 230.376C199.953 230.803 201.02 231.016 202.3 231.016C204.775 231.016 207.121 230.333 209.34 228.968C211.644 227.517 213.436 225.64 214.716 223.336C216.081 221.032 216.764 218.557 216.764 215.912L216.636 203.24C214.844 201.192 213.18 199.784 211.644 199.016C210.193 198.163 208.657 197.736 207.036 197.736C201.575 197.736 197.82 199.827 195.772 204.008C194.663 205.971 193.681 208.189 192.828 210.664C192.06 213.139 191.676 215.571 191.676 217.96Z" fill="#367C2D"/>
</svg>
